Coordinates
version=1
nRows=17
nColumns=40
inDegrees=yes

Units are S.I. units (second, meters, Newtons, ...)
Angles are in degrees.

endheader
time	pelvis_tilt	pelvis_list	pelvis_rotation	pelvis_tx	pelvis_ty	pelvis_tz	hip_flexion_r	hip_adduction_r	hip_rotation_r	knee_angle_r	knee_angle_r_beta	ankle_angle_r	subtalar_angle_r	mtp_angle_r	hip_flexion_l	hip_adduction_l	hip_rotation_l	knee_angle_l	knee_angle_l_beta	ankle_angle_l	subtalar_angle_l	mtp_angle_l	lumbar_extension	lumbar_bending	lumbar_rotation	arm_flex_r	arm_add_r	arm_rot_r	elbow_flex_r	pro_sup_r	wrist_flex_r	wrist_dev_r	arm_flex_l	arm_add_l	arm_rot_l	elbow_flex_l	pro_sup_l	wrist_flex_l	wrist_dev_l
     20.53750000	     -2.05419588	     -4.81590696	     -1.15713015	      0.94268904	      0.91275400	      0.42385001	     23.29086100	     -6.25011552	     -5.81997788	     66.82686372	     66.82686372	      5.29133546	    -18.78277663	      8.66248320	     17.32723588	     -1.83667219	      0.01905506	     34.80554218	     34.80554218	     21.67591898	    -17.24274304	      7.25728581	    -11.16348147	      5.29773855	      2.66152634	     19.27356037	    -12.85680768	     -6.25641689	     31.11918658	     46.55521260	      0.00000000	      0.00000000	     22.47410628	    -11.77018963	      9.13561928	     37.19944466	     45.74014360	      0.00000000	      0.00000000
     20.55700000	     -1.95513860	     -4.87715331	     -1.74142873	      0.94189925	      0.91320790	      0.42307421	     24.42498965	     -6.01361650	     -5.60264026	     66.52556441	     66.52556441	      5.84618449	    -18.90487091	      8.70341976	     16.59854762	     -1.90141704	     -0.41194812	     34.49088485	     34.49088485	     21.98279896	    -17.34342424	      7.27074270	    -11.33188101	      5.80503601	      1.73092891	     16.06728415	    -12.47527378	     -6.26731518	     29.82209009	     46.58099269	      0.00000000	      0.00000000	     23.45552457	    -12.52068950	      8.91555452	     37.59631912	     45.78002518	      0.00000000	      0.00000000
     20.57650000	     -1.94577874	     -4.82794314	     -2.47119201	      0.94105853	      0.91422443	      0.42270195	     25.57871050	     -5.68195757	     -5.15408111	     65.63236316	     65.63236316	      6.74923587	    -18.92726206	      9.39999766	     15.72366796	     -1.88363979	     -1.01881774	     33.72467153	     33.72467153	     22.12066306	    -17.38366896	      7.43804567	    -11.50574367	      6.10778037	      2.22139037	     12.37458326	    -12.87541176	     -6.48500097	     27.72271947	     46.65183319	      0.00000000	      0.00000000	     24.93495224	    -12.36640708	      8.65037960	     38.92979356	     45.84236794	      0.00000000	      0.00000000
     20.59600000	     -1.99448523	     -4.89933910	     -3.19341495	      0.94013739	      0.91573780	      0.42276065	     26.55509761	     -5.10365644	     -4.77353464	     63.97726889	     63.97726889	      7.59881582	    -18.85924844	      9.76499842	     14.81040188	     -2.02328222	     -1.61566434	     32.75475554	     32.75475554	     22.12765745	    -17.29697213	      7.57353936	    -11.69309940	      6.54360032	      2.04693531	      9.01005359	    -13.02116042	     -6.81024978	     26.21087777	     46.70950215	      0.00000000	      0.00000000	     26.14067432	    -12.76210833	      8.32797357	     40.01441822	     45.90447707	      0.00000000	      0.00000000
     20.61550000	     -2.16078451	     -4.96394174	     -3.95169452	      0.93922732	      0.91737228	      0.42311951	     27.44375972	     -4.49130482	     -4.47240270	     61.66929253	     61.66929253	      8.32804541	    -18.70774289	      9.66196853	     13.96449706	     -2.17942438	     -2.31391899	     31.68505793	     31.68505793	     22.11474600	    -17.19932723	      7.60719985	    -11.63556389	      7.04503681	      1.68385027	      5.79190134	    -13.11718832	     -7.20986933	     25.09231430	     46.75870967	      0.00000000	      0.00000000	     27.28056160	    -13.52208465	      7.93717216	     41.11460452	     45.97183769	      0.00000000	      0.00000000
     20.63500000	     -2.34675761	     -5.03440401	     -4.76859008	      0.93822271	      0.91933310	      0.42387810	     28.11793347	     -3.75186413	     -4.08654598	     58.69882491	     58.69882491	      8.79391784	    -18.38357374	      8.98951204	     13.00843300	     -2.36569194	     -3.09540984	     30.36075340	     30.36075340	     21.92116564	    -17.00691690	      7.57108916	    -11.68896261	      7.48892813	      1.53755430	      2.52814965	    -13.36622230	     -7.76434745	     24.23751944	     46.81018390	      0.00000000	      0.00000000	     28.44210398	    -14.23638174	      7.49270817	     42.61994395	     46.04827234	      0.00000000	      0.00000000
     20.65450000	     -2.65282325	     -5.07175454	     -5.61662841	      0.93720534	      0.92119655	      0.42490332	     28.55390588	     -3.11400958	     -3.89795966	     54.89118850	     54.89118850	      7.76534154	    -18.11582891	      3.94639508	     12.07794928	     -2.53554124	     -3.96228621	     28.81228949	     28.81228949	     21.25116660	    -16.87783848	      6.51371417	    -11.65413925	      7.94365620	      1.37899158	     -0.70492959	    -13.34867814	    -11.63538609	     24.33126051	     47.06336702	      0.00000000	      0.00000000	     29.37459757	    -15.15046238	      7.12343122	     44.70568544	     46.19491951	      0.00000000	      0.00000000
     20.67400000	     -2.95306116	     -5.14174432	     -6.46717696	      0.93613685	      0.92302754	      0.42634912	     28.90760386	     -2.30536090	     -3.58412149	     50.96216510	     50.96216510	      8.19846948	    -17.02361601	      3.65503771	     11.20326634	     -2.74990888	     -4.82654737	     27.42583859	     27.42583859	     21.11245489	    -16.52167107	      6.73258183	    -11.58136702	      8.39780068	      1.09302412	     -3.45109642	    -13.65577099	    -11.88468962	     23.56071689	     47.08936708	      0.00000000	      0.00000000	     30.58659711	    -16.16107259	      6.71743671	     45.75529834	     46.25880862	      0.00000000	      0.00000000
     20.69350000	     -3.26628221	     -5.11510693	     -7.37086624	      0.93511983	      0.92453004	      0.42805727	     28.91890927	     -1.69181432	     -3.45429997	     46.32153793	     46.32153793	      6.91955983	    -15.92541272	     -1.26382405	     10.29853309	     -2.88099063	     -5.84368020	     25.93415113	     25.93415113	     20.55983452	    -16.20919322	      5.84587183	    -11.61404347	      8.70657928	      1.00415018	     -6.71644339	    -13.82846328	    -13.64606669	     24.85671854	     47.12244539	      0.00000000	      0.00000000	     31.27246825	    -17.37611895	      6.14095071	     48.76799966	     46.38347765	      0.00000000	      0.00000000
     20.71300000	     -3.55748811	     -5.07978417	     -8.27567528	      0.93408465	      0.92579065	      0.43004385	     28.84413013	     -1.10514254	     -3.43621703	     41.77796975	     41.77796975	      7.05266392	    -13.39140499	     -1.63933556	      9.45301364	     -2.98534765	     -6.82078028	     24.63779657	     24.63779657	     20.46330828	    -15.77074994	      5.94502687	    -11.59949978	      8.97745607	      0.99334098	     -9.07122757	    -14.16987284	    -13.98326346	     24.21435130	     47.15093378	      0.00000000	      0.00000000	     32.67491958	    -18.35551165	      5.72434024	     49.82446642	     46.45168213	      0.00000000	      0.00000000
     20.73250000	     -3.87003886	     -4.98474408	     -9.16697954	      0.93322514	      0.92650903	      0.43231719	     28.54325043	     -0.60253130	     -3.56870537	     36.96126336	     36.96126336	      6.35815932	    -10.62661567	     -3.79806005	      8.67751279	     -3.04062027	     -7.82464154	     23.42397568	     23.42397568	     20.09000311	    -15.44084740	      5.18648757	    -11.56942399	      9.19918516	      0.93971360	    -11.63388180	    -14.27386354	    -15.76035816	     25.21334881	     47.19052665	      0.00000000	      0.00000000	     33.57375678	    -19.50348394	      5.15233711	     52.01787446	     46.57445359	      0.00000000	      0.00000000
     20.75200000	     -4.17318454	     -4.90334222	     -9.98739399	      0.93254274	      0.92679661	      0.43487399	     28.14129132	     -0.08156995	     -3.81155036	     32.36176847	     32.36176847	      6.17207000	     -7.35268004	     -3.43303142	      8.00803756	     -3.10112821	     -8.67925070	     22.47089079	     22.47089079	     20.13399925	    -15.09050846	      5.19138114	    -11.46010899	      9.39533924	      0.89080820	    -13.47775698	    -14.48752114	    -16.03918671	     24.74796984	     47.21155153	      0.00000000	      0.00000000	     34.89196581	    -20.48274304	      4.73143544	     52.91474752	     46.63857310	      0.00000000	      0.00000000
     20.77150000	     -4.55998349	     -4.67492556	    -10.81223407	      0.93196623	      0.92640254	      0.43778023	     27.81659313	      0.35367514	     -3.96823544	     28.06499816	     28.06499816	      5.71052818	     -4.21040563	     -2.79901751	      7.54297935	     -3.03898720	     -9.53840010	     21.70931399	     21.70931399	     20.20798888	    -14.83129062	      5.10617987	    -11.16015729	      9.38369841	      0.85902935	    -14.98555164	    -14.46851827	    -16.27767246	     24.51659535	     47.22296978	      0.00000000	      0.00000000	     36.11372176	    -21.39135371	      4.31240934	     53.83977633	     46.69988661	      0.00000000	      0.00000000
     20.79100000	     -4.52890035	     -4.40565385	    -11.56463167	      0.93203133	      0.92589646	      0.44076189	     27.15896534	      0.37981464	     -5.01903325	     24.56486000	     24.56486000	      5.63835588	      0.46778836	     -2.05683487	      6.59190400	     -2.86326842	    -10.53513700	     20.94483254	     20.94483254	     20.29514552	    -14.28725399	      4.43951531	    -11.38657158	      9.27374645	      1.09039620	    -16.78300318	    -14.43543242	    -17.09232045	     25.15997302	     47.23011270	      0.00000000	      0.00000000	     37.15410537	    -22.21769130	      3.52198165	     55.91357509	     46.81274846	      0.00000000	      0.00000000
     20.81050000	     -4.74450952	     -4.23866443	    -12.24972996	      0.93220505	      0.92489915	      0.44421429	     26.66318040	      0.83258338	     -5.27383092	     21.37758669	     21.37758669	      5.03213605	      2.98362753	     -1.05715288	      6.03090738	     -2.83079717	    -11.16768302	     20.44345534	     20.44345534	     20.47335671	    -14.23041032	      4.15479695	    -11.19498154	      9.29414701	      1.10206060	    -17.87083528	    -14.31804487	    -17.43361422	     25.27019347	     47.23588980	      0.00000000	      0.00000000	     38.13479778	    -22.98448922	      2.98891194	     56.91019934	     46.88238489	      0.00000000	      0.00000000
     20.83000000	     -4.82221421	     -3.95721474	    -12.91217540	      0.93279871	      0.92364712	      0.44782752	     26.39771815	      0.92922252	     -6.07854993	     19.47970178	     19.47970178	      5.05249565	      6.19116162	      0.58423631	      5.29570104	     -2.66014742	    -11.93632575	     19.88582587	     19.88582587	     20.40008740	    -14.05740621	      2.93880398	    -11.16989129	      9.15843062	      1.09007318	    -19.07160776	    -13.98342970	    -18.92421789	     26.79607898	     47.23933309	      0.00000000	      0.00000000	     38.47718681	    -23.66789478	      1.30994151	     59.46429855	     47.07567067	      0.00000000	      0.00000000
     20.84950000	     -4.88163638	     -3.82090959	    -13.48395269	      0.93369129	      0.92248432	      0.45176678	     26.02615753	      1.28205600	     -6.27962176	     17.99267966	     17.99267966	      4.60329686	      7.67776702	      1.06685644	      4.52711091	     -2.61910174	    -12.47994710	     19.39610720	     19.39610720	     20.64211025	    -13.96846951	      2.71892346	    -11.09229084	      9.17116773	      1.29039645	    -19.61646265	    -13.73323683	    -19.21024552	     26.76615831	     47.24498198	      0.00000000	      0.00000000	     39.34799782	    -24.10961523	      0.66213772	     60.37609056	     47.15234415	      0.00000000	      0.00000000
